<?xml version="1.0" encoding="UTF-8"?>
<svg id="Layer_2" data-name="Layer 2" xmlns="http://www.w3.org/2000/svg" viewBox="0 0 130.95 43.14">
  <defs>
    <style>
      .cls-1 {
        fill: #b62c5b;
      }
    </style>
  </defs>
  <g id="Layer_1-2" data-name="Layer 1">
    <g>
      <path class="cls-1" d="M57.13,23.87c0,.56-.12,1.07-.36,1.55-.24.48-.57.89-1,1.25s-.95.63-1.55.83c-.6.2-1.27.3-1.99.3s-1.39-.1-1.99-.31c-.6-.2-1.12-.48-1.55-.83-.43-.35-.76-.76-1-1.24-.24-.48-.36-.99-.36-1.55,0-.46.09-.9.26-1.32.17-.42.42-.79.73-1.12.32-.33.7-.61,1.14-.85.44-.24.94-.41,1.5-.52v-.75h-6.27c-.08,0-.15-.03-.21-.09-.06-.06-.09-.13-.09-.21v-1.43c0-.08.03-.15.09-.21.06-.06.13-.09.21-.09h15.07c.08,0,.15.03.21.09.06.06.09.13.09.21v1.43c0,.08-.03.15-.09.21-.06.06-.13.09-.21.09h-6.27v.75c.54.11,1.04.28,1.49.52.45.24.83.52,1.15.85.32.33.56.7.73,1.12.17.42.26.86.26,1.32ZM58.72,10.09c.08,0,.15.03.21.09.06.06.09.13.09.21v1.39c0,.08-.03.15-.09.21-.06.06-.13.09-.21.09h-5.19v.12c0,.24.09.45.27.63.18.18.48.37.91.55.43.18,1,.35,1.72.52.72.17,1.63.36,2.73.56.18.05.28.15.28.3,0,.03,0,.04,0,.05,0,0,0,.02,0,.05l-.38,1.37c-.04.16-.14.24-.3.24-.01,0-.03,0-.04,0-.01,0-.03-.01-.04-.01-1.2-.26-2.18-.49-2.92-.68-.75-.19-1.35-.37-1.8-.54-.46-.17-.8-.33-1.04-.5-.24-.17-.46-.35-.65-.56-.21.24-.45.45-.7.62-.26.18-.62.36-1.08.54-.46.18-1.06.37-1.79.57-.73.21-1.68.45-2.85.72-.03.01-.07.02-.12.02-.15,0-.23-.07-.26-.22l-.4-1.39s0-.03,0-.04c0-.01,0-.03,0-.04,0-.17.09-.28.28-.32,1.12-.24,2.05-.46,2.78-.65.73-.2,1.3-.39,1.73-.58.43-.19.73-.38.89-.57.17-.19.25-.4.25-.62v-.12h-5.2c-.08,0-.15-.03-.21-.09-.06-.06-.09-.13-.09-.21v-1.39c0-.08.03-.15.09-.21.06-.06.13-.09.21-.09h5.21v-1.18c0-.08.03-.15.09-.21.06-.06.13-.09.21-.09h1.94c.08,0,.15.03.21.09.06.06.09.13.09.21v1.18h5.21ZM52.23,25.89c.75,0,1.35-.19,1.78-.56.44-.38.65-.86.65-1.46s-.22-1.06-.65-1.45c-.44-.38-1.03-.58-1.78-.58s-1.35.19-1.79.58c-.44.38-.65.87-.65,1.45s.22,1.08.65,1.46c.44.38,1.03.56,1.79.56Z"/>
      <path class="cls-1" d="M77.41,19.35c0,.08-.03.15-.09.21-.06.06-.13.09-.21.09h-6.27v1.45h4.92c.08,0,.15.03.21.09.06.06.09.13.09.21v5.59c0,.08-.03.15-.09.21-.06.06-.13.09-.21.09h-1.94c-.08,0-.15-.03-.21-.09-.06-.06-.09-.13-.09-.21v-3.87h-10.23c-.08,0-.15-.03-.21-.09-.06-.06-.09-.13-.09-.21v-1.43c0-.08.03-.15.09-.21.06-.06.13-.09.21-.09h5.02v-1.45h-6.27c-.08,0-.15-.03-.21-.09-.06-.06-.09-.13-.09-.21v-1.43c0-.08.03-.15.09-.21.06-.06.13-.09.21-.09h15.07c.08,0,.15.03.21.09.06.06.09.13.09.21v1.43ZM73.56,9.3c0-.08.03-.15.09-.21.06-.06.13-.09.21-.09h1.9c.08,0,.15.03.21.09.06.06.09.13.09.21v4.12c0,.54-.1,1-.3,1.39-.2.38-.53.7-.99.96-.46.26-1.07.47-1.83.62-.76.16-1.7.3-2.81.42-.11.01-.2.02-.29.03-.09,0-.17.01-.27.01s-.18,0-.27-.01c-.09,0-.18-.02-.29-.03-1.11-.12-2.05-.26-2.81-.42-.76-.16-1.37-.37-1.83-.62-.46-.26-.79-.58-.99-.95-.2-.38-.3-.84-.3-1.4v-4.12c0-.08.03-.15.09-.21.06-.06.13-.09.21-.09h1.9c.08,0,.15.03.21.09.06.06.09.13.09.21v1.41h7.97v-1.41ZM73.56,12.69h-7.97v.73c0,.23.07.42.21.57.14.16.37.3.68.42.32.12.73.22,1.24.3.51.08,1.13.15,1.85.2.73-.05,1.35-.12,1.85-.2.51-.08.92-.18,1.24-.3.32-.12.55-.26.68-.42.14-.16.21-.35.21-.57v-.73Z"/>
      <path class="cls-1" d="M90.51,27.19c-.06.06-.13.09-.21.09h-1.82c-.08,0-.15-.03-.21-.09-.06-.06-.09-.13-.09-.21v-5.51c-.42.3-.93.55-1.53.74-.59.19-1.29.32-2.08.39l-3.35.24s-.08,0-.12,0c-.04,0-.08.01-.12.01-.38,0-.66-.09-.83-.26-.17-.17-.26-.4-.26-.69v-11.52c0-.08.03-.15.09-.21.06-.06.13-.09.21-.09h6.72c.08,0,.15.03.21.09.06.06.09.13.09.21v1.47c0,.08-.03.15-.09.21-.06.06-.13.09-.21.09h-4.6v8.57l2.28-.16c1.2-.08,2.1-.31,2.7-.69.59-.38.89-.77.89-1.17v-9.4c0-.08.03-.15.09-.21.06-.06.13-.09.21-.09h1.82c.08,0,.15.03.21.09.06.06.09.13.09.21v6.64h1.75v-6.64c0-.08.03-.15.09-.21.06-.06.13-.09.21-.09h1.82c.08,0,.15.03.21.09.06.06.09.13.09.21v17.69c0,.08-.03.15-.09.21-.06.06-.13.09-.21.09h-1.82c-.08,0-.15-.03-.21-.09-.06-.06-.09-.13-.09-.21v-8.94h-1.75v8.94c0,.08-.03.15-.09.21Z"/>
      <path class="cls-1" d="M106.74,14.66c0,.55-.11,1.08-.33,1.59-.22.51-.54.95-.94,1.34-.4.38-.89.69-1.46.93-.57.24-1.19.35-1.86.35s-1.29-.12-1.86-.35c-.57-.24-1.05-.55-1.46-.94-.41-.39-.72-.84-.94-1.35-.22-.51-.33-1.03-.33-1.57,0-.5.08-.96.23-1.38.16-.42.37-.8.64-1.13h-1.48c-.08,0-.15-.03-.21-.09-.06-.06-.09-.13-.09-.21v-1.42c0-.08.03-.15.09-.21.06-.06.13-.09.21-.09h3.79v-1.21c0-.08.03-.15.09-.21.06-.06.13-.09.21-.09h1.94c.08,0,.15.03.21.09.06.06.09.13.09.21v1.21h4.07c.08,0,.15.03.21.09.06.06.09.13.09.21v1.42c0,.08-.03.15-.09.21-.06.06-.13.09-.21.09h-1.5c.28.34.5.72.66,1.13.16.42.23.88.23,1.38ZM99.02,20.61c0-.08.03-.15.09-.21.06-.06.13-.09.21-.09h11.9c.08,0,.15.03.21.09.06.06.09.13.09.21v6.37c0,.08-.03.15-.09.21-.06.06-.13.09-.21.09h-1.94c-.08,0-.15-.03-.21-.09-.06-.06-.09-.13-.09-.21v-4.65h-9.66c-.08,0-.15-.03-.21-.09-.06-.06-.09-.13-.09-.21v-1.43ZM102.15,16.97c.65,0,1.16-.21,1.55-.64.38-.42.58-.98.58-1.67,0-.34-.05-.65-.15-.95-.1-.3-.25-.56-.44-.79-.19-.23-.41-.41-.67-.55-.26-.13-.55-.2-.87-.2s-.61.07-.87.2c-.26.14-.48.32-.67.55-.19.23-.33.49-.44.79-.1.3-.15.61-.15.95,0,.69.19,1.25.58,1.67.38.43.9.64,1.55.64ZM111.51,18.84c0,.08-.03.15-.09.21-.06.06-.13.09-.21.09h-1.94c-.08,0-.15-.03-.21-.09-.06-.06-.09-.13-.09-.21v-9.54c0-.08.03-.15.09-.21.06-.06.13-.09.21-.09h1.94c.08,0,.15.03.21.09.06.06.09.13.09.21v2.06c.33-.36.76-.56,1.29-.59l.81-.06c.08,0,.15.02.21.06.06.04.1.11.11.2l.12,1.61c0,.19-.09.29-.28.32l-.81.06c-.4.03-.73.14-1,.34-.27.2-.42.42-.45.67v4.88Z"/>
      <path class="cls-1" d="M116.83,12.11h10.33v4.83c0,.95-.04,1.76-.12,2.43-.08.67-.19,1.27-.34,1.81-.01.03-.02.06-.02.1,0,.15.09.24.26.28l1.79.36s.02,0,.03.01c0,0,.02,0,.03,0,.15,0,.27-.17.39-.51.11-.34.21-.77.29-1.29.08-.52.14-1.1.18-1.73.04-.63.06-1.23.06-1.79v-6.24c0-.08-.03-.15-.09-.21-.06-.06-.13-.09-.21-.09h-12.57c-.08,0-.15.03-.21.09-.06.06-.09.13-.09.21v1.43c0,.08.03.15.09.21.06.06.13.09.21.09Z"/>
      <path class="cls-1" d="M130.86,24.92c-.06-.06-.13-.09-.21-.09h-5.29v-6.48c0-.08-.03-.15-.09-.21-.06-.06-.13-.09-.21-.09h-1.9c-.08,0-.15.03-.21.09-.06.06-.09.13-.09.21v6.48h-1.43v-6.48c0-.08-.03-.15-.09-.21-.06-.06-.13-.09-.21-.09h-1.9c-.08,0-.15.03-.21.09-.06.06-.09.13-.09.21v6.48h-3.36c-.08,0-.15.03-.21.09-.06.06-.09.13-.09.21v1.47c0,.08.03.15.09.21.06.06.13.09.21.09h15.07c.08,0,.15-.03.21-.09.06-.06.09-.13.09-.21v-1.47c0-.08-.03-.15-.09-.21Z"/>
    </g>
    <g>
      <path class="cls-1" d="M47.38,33.88c-.09.16-.2.29-.34.4-.13.1-.29.18-.46.24-.17.05-.35.08-.54.08-.23,0-.44-.04-.65-.13-.2-.09-.38-.22-.52-.39-.15-.17-.26-.38-.35-.63-.09-.25-.13-.54-.13-.87s.04-.61.13-.86c.09-.25.21-.46.35-.62.15-.17.32-.29.53-.38.2-.09.42-.13.64-.13.18,0,.36.03.52.08.16.05.31.13.44.23.13.1.24.23.33.39.09.15.16.33.2.54,0,.01,0,.02,0,.04,0,.04-.02.05-.07.05h-.53s-.04,0-.05-.01c0,0,0-.03-.02-.05-.06-.23-.16-.41-.29-.53-.13-.12-.31-.18-.55-.18-.18,0-.33.04-.45.12-.13.08-.23.19-.31.33-.08.13-.14.29-.18.46-.04.18-.06.36-.06.55s.02.37.06.55c.04.18.09.33.17.47.08.14.18.25.31.33.13.08.28.12.46.12.5,0,.78-.25.86-.76,0-.03.01-.05.02-.06,0,0,.02-.01.05-.01h.52s.04,0,.05.02c0,.01.01.03.01.05v.03c-.03.22-.09.41-.18.57Z"/>
      <path class="cls-1" d="M48.78,34.45s0,.04-.03.06c-.02.02-.04.03-.06.03h-.47s-.04,0-.06-.03c-.02-.02-.02-.04-.02-.06v-3.73s0-.04.02-.06c.02-.02.04-.03.06-.03h.47s.04,0,.06.03c.02.02.03.04.03.06v1.56h1.65v-1.56s0-.04.02-.06c.01-.02.03-.03.06-.03h.47s.04,0,.06.03c.02.02.03.04.03.06v3.73s0,.04-.03.06c-.02.02-.04.03-.06.03h-.47s-.04,0-.06-.03c-.01-.02-.02-.04-.02-.06v-1.62h-1.65v1.62Z"/>
      <path class="cls-1" d="M52.65,33.82c.12.14.32.21.6.21s.49-.07.61-.21c.12-.14.18-.35.18-.61v-2.49s0-.04.02-.06c.01-.02.03-.03.06-.03h.46s.04,0,.06.03c.02.02.03.04.03.06v2.49c0,.23-.04.43-.1.6-.07.17-.16.31-.29.43-.12.12-.27.2-.45.26-.17.06-.37.09-.58.09s-.41-.03-.59-.09c-.18-.06-.33-.15-.45-.27-.12-.12-.22-.26-.28-.43-.07-.17-.1-.37-.1-.59v-2.49s0-.04.03-.06c.02-.02.04-.03.05-.03h.47s.04,0,.06.03c.02.02.02.04.02.06v2.49c0,.27.06.47.18.61Z"/>
      <path class="cls-1" d="M57.79,30.65s.03-.03.06-.03h.47s.04,0,.05.03c.02.02.02.04.02.06v3.73s0,.04-.02.06c-.02.02-.03.03-.05.03h-.35c-.06,0-.1-.01-.12-.03-.02-.02-.04-.05-.07-.09l-1.65-2.66v2.7s0,.04-.03.06c-.02.02-.04.03-.06.03h-.47s-.04,0-.05-.03c-.02-.02-.03-.04-.03-.06v-3.73s0-.04.03-.06c.02-.02.03-.03.05-.03h.45c.06,0,.1.01.12.03.02.02.05.05.07.1l1.56,2.5v-2.54s0-.04.02-.06Z"/>
      <path class="cls-1" d="M62.09,33.88c-.15.22-.33.4-.55.52-.22.13-.49.19-.81.19-.23,0-.44-.04-.65-.13-.2-.09-.38-.22-.52-.39-.15-.17-.27-.38-.35-.63-.09-.25-.13-.54-.13-.87s.04-.62.13-.87c.09-.25.2-.46.35-.62.15-.17.32-.29.51-.38s.4-.13.61-.13c.17,0,.33.02.49.07.16.05.3.12.43.22.13.1.24.22.33.37.09.15.16.32.2.52,0,.01,0,.02,0,.04,0,.03-.02.05-.07.05h-.53s-.04,0-.05-.01c0,0-.01-.03-.02-.06-.06-.22-.15-.39-.27-.5-.12-.11-.29-.16-.52-.16-.17,0-.31.04-.43.12-.12.08-.22.19-.3.33-.08.14-.13.29-.17.47-.03.17-.05.35-.05.54s.02.37.06.55c.04.18.09.33.17.47.08.14.18.25.31.33.13.08.28.12.46.12.1,0,.19-.01.28-.03.08-.02.15-.05.22-.09.06-.04.12-.08.17-.13.05-.05.09-.1.12-.15v-.71h-.71s-.04,0-.06-.03c-.02-.02-.02-.04-.02-.06v-.35s0-.04.02-.06c.02-.02.04-.02.06-.02h1.26s.04,0,.06.02c.02.02.03.04.03.06v1.2c0,.06-.02.11-.06.17Z"/>
      <path class="cls-1" d="M64.26,30.63c.19,0,.36.02.52.06.16.04.3.1.41.19s.21.19.27.31c.07.13.1.27.1.44,0,.18-.04.34-.11.47-.07.13-.16.24-.27.32.17.09.31.22.4.37.09.16.14.35.14.6,0,.18-.03.34-.08.48-.06.14-.14.26-.27.36-.12.1-.28.17-.46.23-.19.05-.41.08-.67.08h-1.27s-.04,0-.05-.03c-.02-.02-.03-.04-.03-.06v-3.73s0-.04.03-.06c.02-.02.03-.03.05-.03h1.3ZM64.92,31.68c0-.17-.06-.3-.17-.39-.12-.09-.29-.14-.53-.14h-.69v1.08h.72c.21,0,.37-.04.5-.12.12-.08.18-.23.18-.44ZM65.07,33.38c0-.21-.07-.36-.2-.46-.14-.09-.37-.14-.68-.14h-.67v1.23h.81c.27,0,.46-.06.58-.17.11-.11.17-.27.17-.46Z"/>
      <path class="cls-1" d="M67.14,33.82c.12.14.32.21.6.21s.49-.07.61-.21c.12-.14.18-.35.18-.61v-2.49s0-.04.02-.06c.01-.02.03-.03.06-.03h.46s.04,0,.06.03c.02.02.02.04.02.06v2.49c0,.23-.03.43-.1.6-.07.17-.16.31-.29.43-.12.12-.27.2-.45.26-.17.06-.37.09-.58.09s-.41-.03-.59-.09c-.18-.06-.33-.15-.45-.27-.12-.12-.22-.26-.28-.43-.07-.17-.1-.37-.1-.59v-2.49s0-.04.02-.06c.02-.02.04-.03.06-.03h.47s.04,0,.06.03c.02.02.03.04.03.06v2.49c0,.27.06.47.18.61Z"/>
      <path class="cls-1" d="M69.97,30.65s.04-.03.05-.03h.47s.04,0,.06.03c.02.02.03.04.03.06v1.93l1.38-1.95s.03-.03.05-.05c.02-.02.05-.02.07-.02h.6s.03.02.03.05c0,.02,0,.03,0,.04l-1.16,1.54c.06,0,.12.03.18.07.06.04.12.11.17.2l1.04,1.92s0,.03,0,.04c0,.03-.01.05-.04.05h-.58s-.08-.03-.1-.08l-.83-1.57s-.05-.08-.08-.09c-.03-.02-.05-.03-.08-.03-.04,0-.07.01-.09.03l-.57.76v.9s0,.04-.03.06c-.02.02-.04.03-.06.03h-.47s-.04,0-.05-.03c-.02-.02-.03-.04-.03-.06v-3.73s0-.04.03-.06Z"/>
      <path class="cls-1" d="M76.59,30.65s.03-.03.06-.03h.47s.04,0,.05.03c.02.02.02.04.02.06v3.73s0,.04-.02.06c-.02.02-.04.03-.05.03h-.35c-.06,0-.1-.01-.12-.03-.02-.02-.04-.05-.07-.09l-1.66-2.66v2.7s0,.04-.03.06c-.02.02-.04.03-.06.03h-.47s-.04,0-.05-.03c-.02-.02-.02-.04-.02-.06v-3.73s0-.04.02-.06c.02-.02.04-.03.05-.03h.45c.06,0,.09.01.12.03.02.02.05.05.07.1l1.56,2.5v-2.54s0-.04.02-.06Z"/>
      <path class="cls-1" d="M77.8,34.53s-.06-.02-.06-.06c0-.01,0-.02,0-.03l1.33-3.77c.01-.06.05-.08.1-.08h.42s.04,0,.06.02c.02.02.03.04.04.06l1.33,3.77s0,0,0,.01c0,0,0,0,0,.01,0,.02,0,.03-.02.04-.01.01-.03.02-.05.02h-.5s-.04,0-.06-.03c-.02-.02-.03-.04-.04-.06l-.28-.84h-1.09c-.09,0-.16.01-.21.03-.06.02-.1.07-.12.13l-.22.68s-.02.04-.04.06c-.02.02-.04.03-.07.03h-.51ZM78.84,33.16s.08-.06.12-.08c.04-.02.1-.03.16-.03h.75l-.5-1.51-.54,1.62Z"/>
      <path class="cls-1" d="M83.91,30.65s.03.04.03.06v.38s0,.04-.03.06c-.02.02-.04.02-.06.02h-1.06v3.26s0,.04-.02.06c-.02.02-.04.03-.06.03h-.46s-.04,0-.06-.03c-.02-.02-.03-.04-.03-.06v-3.26h-1.06s-.04,0-.06-.02c-.02-.02-.03-.04-.03-.06v-.38s0-.04.03-.06c.02-.02.04-.03.06-.03h2.76s.04,0,.06.03Z"/>
      <path class="cls-1" d="M84.54,30.65s.04-.03.05-.03h.47s.04,0,.06.03c.02.02.02.04.02.06v3.73s0,.04-.02.06c-.02.02-.04.03-.06.03h-.47s-.04,0-.05-.03c-.02-.02-.03-.04-.03-.06v-3.73s0-.04.03-.06Z"/>
      <path class="cls-1" d="M87.55,34.59c-.23,0-.45-.04-.65-.13-.2-.09-.38-.22-.54-.39-.16-.17-.28-.38-.37-.63-.09-.25-.14-.54-.14-.87s.04-.61.14-.86c.09-.25.21-.46.37-.62.16-.17.34-.29.54-.38.21-.09.42-.13.65-.13s.44.04.65.13c.2.09.38.21.54.38.16.17.28.38.37.62.09.25.14.54.14.86s-.05.61-.14.87c-.09.25-.21.46-.37.63-.16.17-.34.3-.54.39-.2.09-.42.13-.65.13ZM87.55,34.05c.18,0,.34-.04.47-.12.13-.08.24-.19.33-.33.09-.14.15-.29.19-.47.04-.18.06-.36.06-.55s-.02-.37-.07-.54c-.04-.18-.11-.33-.19-.47-.09-.14-.19-.25-.33-.33-.13-.08-.29-.12-.47-.12s-.33.04-.47.12c-.13.08-.24.19-.33.33-.09.14-.15.29-.19.47-.04.17-.06.35-.06.54s.02.37.06.55c.04.18.11.33.19.47.09.14.2.25.33.33.13.08.29.12.47.12Z"/>
      <path class="cls-1" d="M92.25,30.65s.03-.03.06-.03h.47s.04,0,.05.03c.02.02.03.04.03.06v3.73s0,.04-.03.06c-.02.02-.03.03-.05.03h-.35c-.06,0-.1-.01-.12-.03-.02-.02-.05-.05-.07-.09l-1.65-2.66v2.7s0,.04-.03.06c-.02.02-.04.03-.06.03h-.47s-.04,0-.05-.03c-.02-.02-.03-.04-.03-.06v-3.73s0-.04.03-.06c.02-.02.04-.03.05-.03h.45c.06,0,.09.01.12.03.02.02.04.05.07.1l1.56,2.5v-2.54s0-.04.02-.06Z"/>
      <path class="cls-1" d="M93.47,34.53s-.06-.02-.06-.06c0-.01,0-.02,0-.03l1.33-3.77c.01-.06.05-.08.1-.08h.42s.04,0,.06.02c.02.02.03.04.04.06l1.33,3.77s0,0,0,.01c0,0,0,0,0,.01,0,.02,0,.03-.02.04-.01.01-.03.02-.05.02h-.5s-.04,0-.06-.03c-.02-.02-.03-.04-.04-.06l-.28-.84h-1.09c-.09,0-.16.01-.21.03-.06.02-.1.07-.12.13l-.22.68s-.02.04-.04.06c-.02.02-.04.03-.06.03h-.51ZM94.51,33.16s.08-.06.12-.08c.04-.02.1-.03.16-.03h.75l-.5-1.51-.54,1.62Z"/>
      <path class="cls-1" d="M97.24,34.5s-.03-.04-.03-.06v-3.73s0-.04.03-.06c.02-.02.04-.03.05-.03h.47s.04,0,.06.03c.02.02.02.04.02.06v3.26h1.7s.04,0,.06.03c.01.02.02.04.02.06v.38s0,.04-.02.06c-.01.02-.03.03-.06.03h-2.25s-.04,0-.05-.03Z"/>
      <path class="cls-1" d="M101.82,33.82c.12.14.32.21.6.21s.49-.07.61-.21c.12-.14.18-.35.18-.61v-2.49s0-.04.02-.06c.01-.02.03-.03.06-.03h.46s.04,0,.06.03c.02.02.02.04.02.06v2.49c0,.23-.03.43-.1.6-.07.17-.16.31-.29.43-.12.12-.27.2-.45.26-.17.06-.37.09-.58.09s-.41-.03-.59-.09c-.18-.06-.33-.15-.45-.27-.12-.12-.22-.26-.28-.43-.07-.17-.1-.37-.1-.59v-2.49s0-.04.02-.06c.02-.02.04-.03.06-.03h.47s.04,0,.06.03c.02.02.03.04.03.06v2.49c0,.27.06.47.18.61Z"/>
      <path class="cls-1" d="M106.96,30.65s.03-.03.06-.03h.47s.04,0,.05.03c.02.02.03.04.03.06v3.73s0,.04-.03.06c-.02.02-.03.03-.05.03h-.35c-.06,0-.1-.01-.12-.03-.02-.02-.05-.05-.07-.09l-1.66-2.66v2.7s0,.04-.02.06c-.02.02-.04.03-.06.03h-.47s-.04,0-.05-.03c-.02-.02-.02-.04-.02-.06v-3.73s0-.04.02-.06c.02-.02.04-.03.05-.03h.45c.06,0,.1.01.12.03.02.02.05.05.07.1l1.56,2.5v-2.54s0-.04.02-.06Z"/>
      <path class="cls-1" d="M108.4,30.65s.03-.03.05-.03h.47s.04,0,.06.03c.02.02.02.04.02.06v3.73s0,.04-.02.06c-.02.02-.04.03-.06.03h-.47s-.04,0-.05-.03c-.02-.02-.03-.04-.03-.06v-3.73s0-.04.03-.06Z"/>
      <path class="cls-1" d="M110.93,34.54s-.03-.04-.04-.06l-1.32-3.76s0-.02,0-.03c0-.04.02-.06.07-.06h.5s.05,0,.07.03c.02.02.03.04.04.06l.97,2.9.96-2.9s.02-.04.04-.06c.01-.02.04-.03.07-.03h.5s.03,0,.05.02c.02.01.02.03.02.05,0,0,0,0,0,.01,0,0,0,0,0,.01l-1.33,3.76s-.02.04-.04.06c-.02.02-.04.03-.06.03h-.42s-.04,0-.06-.03Z"/>
      <path class="cls-1" d="M113.42,34.5s-.02-.04-.02-.06v-3.73s0-.04.02-.06c.02-.02.03-.03.05-.03h2.23s.04,0,.06.03c.02.02.02.04.02.06v.38s0,.04-.02.06c-.01.02-.03.03-.06.03h-1.68v1.09h1.53s.04,0,.06.03c.02.02.02.04.02.06v.38s0,.04-.02.06c-.01.02-.03.03-.06.03h-1.53v1.14h1.8s.04,0,.06.03c.01.02.02.04.02.06v.38s0,.04-.02.06c-.02.02-.03.03-.06.03h-2.36s-.04,0-.05-.03Z"/>
      <path class="cls-1" d="M119.46,34.44s.01.04.01.05c0,.03-.02.05-.05.05h-.52c-.06,0-.1-.03-.11-.08l-.39-1.04c-.03-.08-.05-.15-.08-.21-.03-.05-.07-.1-.11-.13-.04-.03-.09-.06-.15-.07-.06-.01-.13-.02-.21-.02h-.62v1.46s0,.04-.02.06c-.02.02-.04.03-.06.03h-.47s-.04,0-.05-.03c-.02-.02-.03-.04-.03-.06v-3.73s0-.04.03-.06c.02-.02.03-.03.05-.03h1.18c.2,0,.39.02.56.06.17.04.32.11.45.2.13.09.23.21.3.35.07.14.11.32.11.54,0,.1,0,.2-.03.29-.02.1-.05.19-.09.28-.04.09-.1.17-.17.25-.07.08-.15.14-.26.2.05.04.09.09.13.16.04.06.08.14.12.23l.48,1.24ZM118.6,31.8c0-.25-.06-.41-.19-.51-.12-.09-.3-.14-.54-.14h-.65v1.31h.66c.24,0,.42-.05.54-.16.12-.1.17-.27.17-.5Z"/>
      <path class="cls-1" d="M121.24,34.06c.22,0,.39-.05.52-.15.13-.1.19-.23.19-.39,0-.11-.02-.2-.06-.27-.04-.08-.1-.15-.17-.21-.08-.06-.16-.12-.27-.17-.1-.05-.22-.1-.35-.15-.15-.06-.3-.11-.44-.17-.14-.06-.26-.13-.36-.22-.1-.08-.19-.18-.25-.3-.06-.12-.09-.26-.09-.43,0-.33.11-.58.32-.76.22-.18.51-.27.9-.27.15,0,.3.02.45.06.15.04.28.1.4.19.12.08.21.19.29.31.07.12.11.27.11.44,0,.02,0,.03,0,.04s-.02.01-.05.01h-.48s-.04,0-.05-.01c0,0-.02-.03-.02-.06-.04-.16-.12-.28-.24-.35-.12-.07-.25-.11-.39-.11-.17,0-.31.04-.41.11-.11.07-.16.18-.16.33,0,.09.02.17.07.24.05.06.11.12.19.17.08.05.17.09.27.13.1.04.21.08.31.13.17.07.32.14.46.21.14.07.26.16.36.26.1.1.18.21.24.34.06.13.09.27.09.45,0,.18-.04.34-.11.48-.07.14-.16.26-.29.35-.12.09-.26.17-.43.21-.16.05-.34.07-.52.07s-.35-.02-.5-.07c-.16-.05-.29-.11-.41-.21-.12-.09-.22-.21-.3-.35-.08-.14-.13-.3-.15-.49,0,0,0-.01,0-.02,0,0,0-.01,0-.02,0-.02,0-.03,0-.04,0,0,.02-.01.05-.01h.48s.04,0,.05.01c0,0,.02.03.02.06.06.22.15.38.28.47.13.09.28.14.46.14Z"/>
      <path class="cls-1" d="M123.27,30.65s.04-.03.06-.03h.47s.04,0,.06.03c.02.02.03.04.03.06v3.73s0,.04-.03.06c-.02.02-.04.03-.06.03h-.47s-.04,0-.06-.03c-.02-.02-.03-.04-.03-.06v-3.73s0-.04.03-.06Z"/>
      <path class="cls-1" d="M127.41,30.65s.02.04.02.06v.38s0,.04-.02.06c-.02.02-.04.02-.06.02h-1.06v3.26s0,.04-.02.06c-.02.02-.04.03-.06.03h-.46s-.04,0-.06-.03c-.02-.02-.02-.04-.02-.06v-3.26h-1.06s-.04,0-.06-.02c-.02-.02-.03-.04-.03-.06v-.38s0-.04.03-.06c.02-.02.04-.03.06-.03h2.76s.04,0,.06.03Z"/>
      <path class="cls-1" d="M130.29,30.65s.04-.03.07-.03h.52s.06.02.06.06c0,.01,0,.02,0,.03l-1.2,2.34v1.39s0,.04-.02.06c-.02.02-.04.03-.06.03h-.49s-.04,0-.06-.03c-.02-.02-.03-.04-.03-.06v-1.42l-1.19-2.31s-.01-.02-.01-.03c0-.02,0-.03.02-.04.02-.01.03-.02.05-.02h.52s.05,0,.07.03c.02.02.03.04.04.06l.83,1.63.83-1.63s.02-.04.04-.06Z"/>
    </g>
    <path class="cls-1" d="M32.58,9.67l-.07-.02c-1.45-.36-2.91-.66-4.37-.91-.15-.02-.28.09-.28.24v2.31c0,.39-.34.7-.73.65h0c-2.2-.25-4.41-.4-6.63-.47v-3.26c0-.16-.12-.29-.29-.3-.44-.02-1.34-.04-2.33-.04s-1.89.03-2.33.04c-.16,0-.29.14-.29.3v3.26c-2.16.07-4.32.22-6.47.45-.05,0-.11.01-.16.02h0c-.38.04-.72-.26-.72-.64v-2.25c0-.19-.17-.33-.35-.3-1.44.25-2.88.54-4.3.9l-.07.02c-.13.03-.23.15-.23.29v8.44c0,1.57.16,3.11.47,4.62.21,1.06.5,2.09.85,3.1,1.22,3.84,3.49,7.24,6.5,9.8,2.06,1.84,4.46,3.29,7.1,4.24,2.65-.94,5.04-2.4,7.1-4.24,3.02-2.56,5.28-5.96,6.5-9.8.35-1.01.64-2.04.85-3.1.31-1.5.47-3.05.47-4.62v-8.44c0-.14-.09-.26-.23-.29ZM8.41,22.94c-.45-2.07-.51-3.24-.51-5.96,2.25-.27,4.29-.43,6.59-.53-1.06,2.94-3.15,5.4-6.08,6.48ZM17.88,34.92c-2.89-1.12-5.58-3.21-7.65-7.05,3.03-1.15,5.72-3.34,7.65-6.63,1.93,3.3,4.62,5.48,7.65,6.63-2.07,3.83-4.76,5.92-7.65,7.05ZM27.36,22.94c-2.93-1.09-5.02-3.55-6.09-6.48,2.3.1,4.34.25,6.59.53,0,2.72-.06,3.89-.51,5.96Z"/>
    <path class="cls-1" d="M5.11,7.4c-.48-.65-.96-1.29-1.44-1.93v2.26c-.24.06-.47.12-.71.18v-3.69c.21-.05.42-.11.63-.16.48.63.96,1.28,1.44,1.92v-2.26c.24-.05.47-.1.71-.15v3.69c-.21.04-.42.09-.64.13Z"/>
    <path class="cls-1" d="M8.64,6.37c-.26.3-.57.49-.99.57-.42.07-.74-.01-1-.22-.37-.3-.36-.76-.36-1.4s0-1.1.36-1.54c.26-.31.58-.51,1-.58.42-.07.73.02.99.24.37.32.37.78.37,1.41,0,.64,0,1.1-.37,1.53ZM8.11,3.95c-.1-.1-.26-.15-.46-.12-.2.03-.36.14-.46.28-.14.18-.17.36-.17,1.07s.04.87.17,1c.1.1.27.15.46.11.2-.03.36-.14.46-.27.14-.18.18-.36.18-1.06s-.04-.87-.18-1.01Z"/>
    <path class="cls-1" d="M10.88,6.44c-.18.02-.36.04-.54.07-.41-1.18-.81-2.35-1.22-3.52.25-.04.5-.07.75-.11.25.77.49,1.54.74,2.31.25-.83.5-1.66.74-2.49.25-.03.5-.05.75-.08-.41,1.27-.82,2.54-1.23,3.82Z"/>
    <path class="cls-1" d="M14.24,6.14c-.07-.21-.15-.43-.22-.64-.44.03-.88.06-1.32.1-.08.22-.15.45-.22.67-.25.02-.5.05-.75.07.45-1.27.9-2.54,1.35-3.81.19-.02.38-.03.57-.04.45,1.2.9,2.4,1.36,3.61-.25.01-.5.03-.76.04ZM13.37,3.6c-.16.46-.31.92-.47,1.38.31-.03.61-.05.92-.07-.15-.44-.3-.87-.45-1.31Z"/>
    <path class="cls-1" d="M18.72,6.03c-.07-.22-.15-.44-.22-.65-.44,0-.88,0-1.32,0-.08.22-.15.44-.22.66-.25,0-.5,0-.76.02.45-1.24.9-2.48,1.35-3.71.19,0,.38,0,.57,0,.45,1.23.9,2.47,1.36,3.71-.25,0-.5-.01-.76-.02ZM17.86,3.43c-.16.45-.31.89-.47,1.34.31,0,.62,0,.92,0-.15-.45-.3-.9-.45-1.34Z"/>
    <path class="cls-1" d="M21.27,4.74c-.24-.01-.48-.03-.71-.04v1.39c-.24-.01-.48-.02-.73-.03v-3.69c.48.02.96.04,1.44.06.77.04,1.22.61,1.22,1.23s-.46,1.11-1.22,1.07ZM21.24,3.08c-.23-.01-.45-.02-.68-.03v1.01c.23.01.45.02.68.03.33.02.54-.17.54-.47s-.21-.52-.54-.54Z"/>
    <path class="cls-1" d="M22.93,6.24v-3.69c.81.07,1.63.15,2.44.26v.64c-.57-.07-1.14-.14-1.71-.19v.86c.49.05.97.1,1.46.16v.64c-.49-.06-.97-.11-1.46-.16v.9c.57.06,1.14.12,1.71.19v.64c-.81-.1-1.62-.19-2.44-.26Z"/>
    <path class="cls-1" d="M27.83,6.86c-.24-.53-.48-1.06-.72-1.59-.17-.03-.34-.05-.52-.08v1.47c-.24-.04-.48-.07-.72-.1v-3.69c.48.06.96.14,1.44.21.75.12,1.19.72,1.19,1.33,0,.52-.31.78-.67.85.27.58.55,1.15.82,1.73-.28-.05-.55-.1-.83-.15ZM27.27,3.72c-.23-.04-.45-.07-.68-.1v.97c.23.03.45.07.68.1.32.05.52-.12.52-.4s-.21-.52-.52-.57Z"/>
    <path class="cls-1" d="M28.97,7.06v-3.69c.24.04.48.09.72.14v3.69c-.24-.05-.48-.09-.72-.14Z"/>
    <path class="cls-1" d="M32.45,7.45c-.25.19-.57.26-.98.17-.41-.1-.73-.31-.99-.62-.37-.45-.36-.91-.36-1.55s-.01-1.1.36-1.39c.26-.2.57-.28.99-.18.41.1.73.32.98.64.37.46.36.93.36,1.56s0,1.1-.36,1.38ZM31.92,4.82c-.1-.14-.26-.26-.46-.3-.19-.05-.36,0-.46.09-.14.12-.17.29-.17,1s.04.89.17,1.07c.1.14.27.26.46.3.19.04.35,0,.46-.09.14-.12.18-.28.18-.99s-.04-.89-.18-1.08Z"/>
    <path class="cls-1" d="M15.03,30.45v-2.07l-.52.46v-.51l.52-.46h.47v2.58h-.47Z"/>
    <path class="cls-1" d="M17.47,29.34l-.55,1.12h-.51l.54-1.06c-.06.03-.13.03-.19.03-.35,0-.68-.29-.68-.76,0-.51.35-.8.8-.8s.8.29.8.8c0,.24-.1.45-.21.69ZM16.88,28.28c-.19,0-.33.14-.33.38s.13.38.33.38.33-.14.33-.38-.14-.38-.33-.38Z"/>
    <path class="cls-1" d="M19.39,30.27c-.12.12-.3.21-.57.21s-.46-.09-.58-.21c-.16-.16-.2-.35-.21-.54h.47c.03.2.12.32.32.32.09,0,.17-.03.22-.08.08-.08.1-.22.1-.38,0-.3-.09-.46-.31-.46-.19,0-.28.11-.31.21h-.43v-1.46h1.47v.42h-1.04v.55c.07-.07.21-.13.39-.13.21,0,.38.07.48.17.2.2.23.45.23.69,0,.29-.04.49-.23.68Z"/>
    <path class="cls-1" d="M20.58,30.45v-2.07l-.53.46v-.51l.53-.46h.47v2.58h-.47Z"/>
    <path class="cls-1" d="M35.66,2.62c-.12-.04-.24-.07-.35-.1C29.73.86,23.93.02,18.09,0c-.07,0-.14,0-.21,0s-.14,0-.21,0C11.83.02,6.04.86.46,2.51c-.12.03-.24.07-.35.1l-.1.03v15.8c0,10.97,6.76,20.75,16.83,24.34l1.01.34.05.02.05-.02,1.01-.34c10.07-3.58,16.83-13.36,16.83-24.34V2.65l-.1-.03ZM17.88,42.61l-.89-.3C7.13,38.8.5,29.21.5,18.44V3.02C5.67,1.49,11,.65,16.35.52h0c1.02-.02,2.05-.02,3.07,0,5.35.13,10.68.97,15.85,2.5v15.43c0,10.76-6.63,20.35-16.5,23.86l-.89.31Z"/>
  </g>
</svg>